<?xml version="1.0" standalone="no"?>
<!DOCTYPE svg PUBLIC "-//W3C//DTD SVG 1.1//EN" "http://www.w3.org/Graphics/SVG/1.1/DTD/svg11.dtd" >
<svg xmlns="http://www.w3.org/2000/svg" xmlns:xlink="http://www.w3.org/1999/xlink" version="1.1">
<metadata></metadata>
<defs>
<font id="geometosregular" horiz-adv-x="1585" >
<font-face units-per-em="2048" ascent="1536" descent="-512" />
<missing-glyph horiz-adv-x="700" />
<glyph horiz-adv-x="0" />
<glyph unicode="&#xd;" horiz-adv-x="700" />
<glyph horiz-adv-x="0" />
<glyph horiz-adv-x="0" />
<glyph unicode=" "  horiz-adv-x="700" />
<glyph unicode="&#x09;" horiz-adv-x="700" />
<glyph unicode="&#xa0;" horiz-adv-x="700" />
<glyph unicode="!" horiz-adv-x="600" d="M145 1497h308l-52 -1061h-204zM156 0v305h286v-305h-286z" />
<glyph unicode="&#x22;" horiz-adv-x="909" d="M94 1520h275l-33 -447h-207zM528 1520h275l-35 -447h-207z" />
<glyph unicode="#" horiz-adv-x="1753" d="M37 375l102 264h273l92 235h-271l103 265h270l142 362h282l-141 -362h262l143 362h283l-143 -362h278l-102 -265h-279l-92 -235h277l-103 -264h-276l-148 -375h-282l147 375h-264l-146 -375h-282l145 375h-270zM694 639h262l93 235h-263z" />
<glyph unicode="$" horiz-adv-x="1392" d="M94 207l156 229q113 -78 232.5 -134t250.5 -56q70 0 123 17.5t90 45t55.5 63.5t18.5 70q0 45 -27.5 77t-74 52.5t-108.5 35t-130 26.5q-45 8 -104.5 19.5t-123 30.5t-125 51t-110.5 80t-78.5 114.5t-29.5 156.5q0 106 35.5 183.5t95 128.5t135.5 80.5t155 42.5v168h285 v-164q61 -8 114.5 -23.5t103.5 -38t99.5 -53.5t104.5 -70l-160 -225q-106 74 -204.5 113t-206.5 39q-37 0 -84 -9.5t-89 -30t-70 -52t-28 -76.5t33 -76t84 -51.5t112.5 -34.5t118.5 -29q43 -10 101.5 -20t121 -28.5t124 -49.5t109.5 -79t78 -118.5t30 -171.5 q0 -106 -36 -188t-100.5 -139.5t-154.5 -89t-201 -39.5v-166h-285v182q-68 12 -124 31.5t-108 47t-101.5 59.5t-102.5 69z" />
<glyph unicode="%" horiz-adv-x="1966" d="M68 1090q0 92 28.5 168.5t79.5 132t121 87t154 31.5q82 0 152.5 -31.5t121.5 -87t80 -132t29 -168.5q0 -90 -30 -166t-81 -132.5t-120.5 -88t-151.5 -31.5q-84 0 -154 31.5t-121 87t-79.5 132t-28.5 167.5zM322 1090q0 -10 3 -43t15 -68t37.5 -62.5t73.5 -27.5 q33 0 57 19.5t40.5 50t24 65.5t7.5 66q0 29 -6.5 63.5t-21.5 65t-39.5 51t-61.5 20.5q-45 0 -71 -25.5t-39 -59.5t-16 -67.5t-3 -47.5zM426 0h233l889 1501h-233zM1122 389q0 90 29 167t80 132t120.5 87t153.5 32q82 0 153 -32t121 -87t78.5 -132t28.5 -167t-28.5 -167 t-80 -133t-121 -88t-151.5 -32q-84 0 -153.5 32t-120.5 87t-80 132t-29 169zM1376 389q0 -10 3 -44t15.5 -68.5t38 -62.5t72.5 -28q33 0 57.5 19.5t41 50.5t23.5 66.5t7 66.5q0 29 -6 63.5t-21.5 65.5t-40 51.5t-61.5 20.5q-45 0 -70.5 -25.5t-39 -59.5t-16.5 -68t-3 -48z " />
<glyph unicode="&#x26;" horiz-adv-x="1402" d="M63 340q-14 123 34 215t141 170q23 18 58.5 44t59.5 42q-72 86 -103.5 180t-16.5 193q10 86 54 155.5t113 116.5q72 47 159 62.5t171 -7.5t151.5 -80t102.5 -135q37 -78 35 -162.5t-41 -164.5q-33 -66 -93.5 -116t-135.5 -95l180 -187q74 104 109.5 168t35.5 66l248 -121 q-2 -4 -44 -80t-128 -196q-8 -10 -14 -18.5t-13 -18.5l220 -234l-216 -166l-192 197q-70 -59 -133.5 -96t-117.5 -58.5t-97 -29t-70 -9.5q-88 -4 -166 20.5t-139 74t-101 118t-51 152.5zM338 371q6 -57 54 -98.5t116 -45.5q49 -2 89 10.5t71.5 31t56.5 39t43 38.5l-266 275 q-55 -31 -96 -66q-8 -6 -21.5 -20.5t-26 -37t-19.5 -54t-1 -72.5zM496 1165q-6 -59 20.5 -121.5t65.5 -103.5q29 16 60.5 38.5t53.5 45.5q63 66 64 154q0 53 -37 84.5t-85 33.5t-91 -28.5t-51 -102.5z" />
<glyph unicode="'" horiz-adv-x="471" d="M94 1520h275l-33 -447h-207z" />
<glyph unicode="(" horiz-adv-x="808" d="M92 750q0 266 83 478t243 380q35 39 74.5 72.5t82.5 64.5l162 -215q-59 -41 -112 -98q-123 -129 -184.5 -301.5t-61.5 -380.5q0 -209 61.5 -381t184.5 -301q27 -27 54.5 -50.5t57.5 -46.5l-162 -217q-43 31 -82.5 65t-74.5 72q-160 168 -243 381t-83 478z" />
<glyph unicode=")" horiz-adv-x="735" d="M20 -29q31 23 58.5 46.5t54.5 50.5q123 129 184.5 301t61.5 381t-61.5 381t-184.5 301q-53 57 -113 98l162 215q43 -31 83 -64.5t75 -72.5q160 -168 243 -380t83 -478q0 -264 -83 -477.5t-243 -381.5q-35 -39 -75 -72.5t-83 -64.5z" />
<glyph unicode="*" horiz-adv-x="890" d="M63 1157l60 174l225 -80v244h191v-244l223 80l59 -174l-229 -80l149 -190l-163 -109l-136 191l-135 -191l-162 109l150 190z" />
<glyph unicode="+" horiz-adv-x="1161" d="M72 641v252h377v383h264v-383h377v-252h-377v-383h-264v383h-377z" />
<glyph unicode="," horiz-adv-x="430" d="M53 127q-4 63 39 108.5t105 49.5q57 2 99 -32t56 -93t5 -124t-41.5 -121t-86 -99t-127.5 -60l-34 76q66 20 99.5 60t41.5 92q-61 -2 -106.5 40t-49.5 103z" />
<glyph unicode="-" horiz-adv-x="837" d="M78 645v252h670v-252h-670z" />
<glyph unicode="." horiz-adv-x="393" d="M51 135q0 61 44 105.5t106 44.5q63 0 107 -44.5t44 -105.5q0 -63 -44 -107t-107 -44q-61 0 -105.5 44t-44.5 107z" />
<glyph unicode="/" horiz-adv-x="1110" d="M-51 -283l911 1991h266l-911 -1991h-266z" />
<glyph unicode="0" horiz-adv-x="1529" d="M92 748q0 172 49 314t137.5 244.5t212 160t271.5 57.5q145 0 268 -58.5t212 -162t139.5 -246t50.5 -309.5q0 -156 -46.5 -295.5t-132.5 -245.5q-92 -117 -219 -177.5t-272 -60.5q-150 0 -277 61.5t-219 176.5q-86 106 -130 244.5t-44 296.5zM383 748q0 -90 22.5 -181.5 t68.5 -164t118 -118.5t170 -46q68 0 135.5 32.5t121.5 97t87 160t33 220.5q0 102 -28 206.5t-79 169.5q-102 131 -270 131q-66 0 -133.5 -29.5t-121.5 -91t-89 -157.5t-35 -229z" />
<glyph unicode="1" horiz-adv-x="909" d="M45 1008l520 493h183v-1501h-287v1008l-219 -209z" />
<glyph unicode="2" horiz-adv-x="1314" d="M121 1102q14 55 52 128t101.5 138.5t155.5 110.5t215 45q133 0 231.5 -42t163 -108.5t95 -149.5t30.5 -167q0 -86 -21.5 -158t-63.5 -135.5t-100 -122.5t-132 -119q-29 -23 -67 -55.5t-82 -68.5t-90 -73.5t-89 -70.5h664v-254h-1037v285q39 33 105.5 89t142.5 119.5 l152 127t133 110.5q68 55 107.5 99t60 83t26 74t5.5 70q0 61 -20.5 101t-54.5 64.5t-76 35t-83 10.5q-70 0 -116 -34t-74.5 -77t-42 -82t-15.5 -47v2z" />
<glyph unicode="3" horiz-adv-x="1228" d="M84 385l274 80q2 -8 10.5 -47t34 -82t72.5 -78t129 -35q119 0 177.5 54.5t58.5 128.5q0 78 -24.5 125t-72 73.5t-118 35.5t-162.5 13v221q88 4 158.5 11.5t118.5 30t74 65.5t26 117t-58.5 127t-177.5 53q-82 0 -129 -35t-72.5 -78t-34 -80.5t-10.5 -46.5l-274 80 q14 53 49 125t95.5 136.5t152.5 108.5t223 44q143 0 243.5 -40t162 -102.5t89 -139t27.5 -152.5q0 -84 -21.5 -140.5t-57 -96.5t-78.5 -64.5t-86 -42.5q41 -14 84 -39t78.5 -65t58 -100.5t22.5 -143.5q0 -20 -3 -50t-12 -65t-26.5 -72t-46.5 -74q-43 -53 -97 -86.5 t-112.5 -53t-116 -27t-108.5 -7.5q-131 0 -223 44t-152.5 108.5t-95.5 136.5t-49 125z" />
<glyph unicode="4" horiz-adv-x="1376" d="M109 332v246l788 923h217v-915h182v-254h-182v-332h-287v332h-718zM475 586h352v432z" />
<glyph unicode="5" horiz-adv-x="1261" d="M76 219l147 205l27 -31q26 -31 77.5 -66.5t123 -65.5t163.5 -32q47 0 93.5 17.5t83 49.5t59 78t22.5 103q0 129 -63.5 210t-169.5 85q-63 2 -112.5 -8t-87.5 -29.5t-64.5 -43t-46.5 -44.5l-217 117l137 737h815v-256h-584l-51 -315q47 37 103.5 54t109.5 17 q244 0 380 -138t136 -386q0 -111 -42 -206t-124 -167q-74 -66 -171 -99.5t-206 -33.5t-189.5 21.5t-144 57.5t-112.5 80t-92 89z" />
<glyph unicode="6" horiz-adv-x="1329" d="M96 568.5q6 117.5 62 246.5q18 39 68 119t117 177t140.5 200.5t137.5 189.5h354q-41 -55 -88 -119.5t-94.5 -131t-94.5 -132t-88 -123.5q16 8 38.5 15.5t51.5 9.5q117 6 212.5 -31t163 -106.5t104.5 -168t39 -216.5q0 -72 -12.5 -129.5t-32 -102.5t-44 -78.5t-49.5 -58.5 q-51 -51 -109.5 -82t-116.5 -48t-110.5 -22.5t-91.5 -5.5q-92 0 -176 26t-152.5 72t-118.5 110.5t-75 142.5q-41 129 -35 246.5zM387 496q0 -55 21.5 -104.5t58.5 -85.5t87.5 -57.5t107.5 -21.5t107 21.5t88 57.5t59.5 85t21.5 105q0 55 -21.5 104t-59.5 86t-88 58.5 t-107 21.5t-107.5 -21.5t-87.5 -58.5t-58.5 -86t-21.5 -104z" />
<glyph unicode="7" horiz-adv-x="1230" d="M86 1245v256h1071v-282l-684 -1219h-328l717 1245h-776z" />
<glyph unicode="8" horiz-adv-x="1271" d="M80 446q0 61 22.5 119t58.5 104t82 78.5t93 45.5q-33 14 -68 43.5t-64.5 71.5t-48 91.5t-18.5 100.5q0 92 39 169t105.5 133t156.5 88t193 32q102 0 192 -32t158 -88t106.5 -133t38.5 -169q0 -53 -15 -103.5t-42 -91.5t-62.5 -70.5t-78.5 -41.5q49 -12 96 -44t82 -79 t56.5 -104.5t21.5 -119.5q0 -121 -43 -211t-119 -148t-176.5 -87t-214.5 -29q-115 0 -214.5 29t-175 87t-118.5 148.5t-43 210.5zM369 446q0 -66 21.5 -107.5t57 -66t83 -35t100.5 -10.5t101 10.5t84 35t57.5 66.5t21.5 107q0 51 -21.5 92.5t-57.5 71t-84 45t-101 15.5 t-100.5 -14.5t-83 -43t-57 -70.5t-21.5 -96zM424 1069q0 -45 16.5 -78t45 -55.5t66.5 -33.5t79 -11q86 0 146.5 45t60.5 133q0 55 -16.5 92t-45 60.5t-65.5 34t-80 10.5q-41 0 -79 -11.5t-66.5 -35t-45 -60.5t-16.5 -90z" />
<glyph unicode="9" horiz-adv-x="1345" d="M119 1004q0 72 12 129t32.5 102t44 79t48.5 58q51 51 109.5 82t117 48.5t110.5 22.5t91 5q92 0 176 -25.5t152.5 -72t119 -111t74.5 -141.5q41 -129 35 -247t-61 -247q-18 -39 -68.5 -119t-117 -177t-140.5 -200.5t-137 -189.5h-355q41 55 88.5 119.5t94.5 131t94 132.5 t88 123q-14 -6 -36.5 -14.5t-53.5 -10.5q-117 -6 -212 36t-163.5 116t-105.5 170t-37 201zM401 1006q0 -55 21.5 -104.5t58.5 -86.5t87 -58.5t108 -21.5q57 0 107.5 21.5t88 58.5t59 86t21.5 105q0 72 -21.5 123t-59 84.5t-88 49t-107.5 15.5t-107.5 -16.5t-87.5 -49 t-58.5 -85t-21.5 -121.5z" />
<glyph unicode=":" horiz-adv-x="393" d="M51 135q0 61 43 105.5t107 44.5q63 0 107 -44.5t44 -105.5q0 -63 -44 -107t-107 -44t-106.5 44t-43.5 107zM51 713q0 63 43 107t107 44q63 0 107 -44t44 -107q0 -61 -44 -105.5t-107 -44.5t-106.5 44t-43.5 106z" />
<glyph unicode=";" horiz-adv-x="403" d="M53 127q2 -61 47 -103t109 -40q-8 -51 -42 -91t-99 -61l34 -76q72 16 126.5 59.5t87 99.5t41.5 121t-5 124t-56 93t-99 32q-63 -4 -105.5 -49.5t-38.5 -108.5zM53 713q0 63 43 107t107 44q63 0 107 -44t44 -107q0 -61 -44 -105.5t-107 -44.5t-106.5 44t-43.5 106z" />
<glyph unicode="&#x3c;" horiz-adv-x="1132" d="M109 612v262l911 429v-291l-619 -269l619 -266v-293z" />
<glyph unicode="=" horiz-adv-x="1150" d="M104 371v252h932v-252h-932zM104 866v252h932v-252h-932z" />
<glyph unicode="&#x3e;" horiz-adv-x="1132" d="M109 184v293l618 266l-618 269v291l911 -429v-262z" />
<glyph unicode="?" horiz-adv-x="1183" d="M0 1124q12 37 45 105.5t97.5 137.5t166 120t250.5 51q82 0 147.5 -14.5t115.5 -36t85 -48t60 -53.5q53 -57 82.5 -128.5t29.5 -149.5q0 -100 -29.5 -171t-74.5 -119t-96.5 -79.5t-96.5 -56.5q-35 -18 -63.5 -35.5t-42.5 -36.5q-35 -49 -43 -98t-4 -78h-287 q-4 66 15.5 158t86.5 186q43 59 97.5 93t107.5 63q39 20 66.5 37.5t45 36t25 42t7.5 58.5q0 12 -6.5 36.5t-30 48.5t-69.5 41t-128 17q-68 0 -117 -19.5t-82.5 -51t-54 -69.5t-33.5 -75zM346 0v305h287v-305h-287z" />
<glyph unicode="@" horiz-adv-x="1734" d="M88 756q0 156 51 293t148 241q106 117 251.5 176.5t321.5 59.5q371 0 574 -172q217 -182 217 -525q0 -346 -162 -469q-51 -39 -113.5 -50t-128.5 7q-47 12 -83 39t-62 62q-47 -47 -114.5 -76t-153.5 -29q-184 0 -289 114t-105 312q0 94 29 172t81 133.5t125 86t161 30.5 q66 0 111.5 -15.5t80.5 -39.5v47h207v-510q0 -20 2 -42.5t10 -43t20.5 -36t35.5 -21.5q72 -16 107.5 71.5t35.5 257.5q0 123 -37 219.5t-109 155.5q-74 61 -183 95t-257 34q-147 0 -253.5 -51t-175.5 -133t-102.5 -185.5t-33.5 -207.5q0 -98 20.5 -206t79 -197t160.5 -146 t266 -57q113 0 183.5 14t109.5 31.5t53.5 33t16.5 17.5l155 -135q-23 -25 -62.5 -49.5t-101 -44t-148.5 -33t-206 -13.5q-172 0 -308 53.5t-230.5 155t-144.5 246.5t-50 330zM657 739q0 -72 16.5 -116.5t43 -72.5t57.5 -38t60 -10q37 0 71.5 9t61 32.5t44 61.5t17.5 93v97 q0 29 -7 61.5t-26.5 60t-57.5 46t-101 18.5q-55 0 -90 -24.5t-54.5 -61.5t-27 -79t-7.5 -77z" />
<glyph unicode="A" d="M12 0l766 1497h29l766 -1497h-311l-117 236h-707l-114 -236h-312zM578 485h428l-213 453z" />
<glyph unicode="B" horiz-adv-x="1423" d="M164 0v1499h659q90 0 170 -17.5t139.5 -63.5t94.5 -127t35 -208q0 -45 -18.5 -96t-50.5 -94t-77 -72.5t-98 -32.5q55 -4 109.5 -31.5t97.5 -74.5t70.5 -108.5t27.5 -131.5q0 -123 -37 -207.5t-100.5 -137t-148.5 -75t-181 -22.5h-692zM451 254h405q37 0 69.5 17.5 t57.5 47t39 65.5t14 73q0 76 -56 127t-155 51h-374v-381zM451 891h352q43 0 74.5 16.5t53 43t33 60t11.5 66.5t-12.5 63.5t-33 53.5t-48 37t-58.5 14h-372v-354z" />
<glyph unicode="C" horiz-adv-x="1593" d="M82 748q0 160 61.5 301t167 246.5t246.5 167t301 61.5q109 0 210 -29t188 -81t159 -124.5t121 -161.5l-268 -108q-33 49 -77 92t-97.5 76t-112.5 51t-123 18q-102 0 -191 -41.5t-155 -111.5t-104.5 -163t-38.5 -193q0 -102 38.5 -194.5t104.5 -162t155 -111.5t191 -42 q63 0 122.5 18t113 51t97.5 77t77 93l268 -108q-49 -90 -121 -163t-159 -125t-188 -81t-210 -29q-160 0 -301 61.5t-246.5 167t-167 247t-61.5 301.5z" />
<glyph unicode="D" horiz-adv-x="1609" d="M164 0v1499h592q322 0 528 -188q111 -100 167 -242.5t56 -318.5q0 -178 -56 -320.5t-167 -243.5q-100 -92 -234 -139t-294 -47h-592zM451 254h305q80 0 161.5 18.5t148.5 72.5t110 150.5t43 252.5t-43 253t-111 150t-149.5 71.5t-159.5 18.5h-305v-987z" />
<glyph unicode="E" horiz-adv-x="1398" d="M164 0v1499h1102v-254h-817v-375h725v-260h-725v-352h817v-258h-1102z" />
<glyph unicode="F" horiz-adv-x="1335" d="M164 0v1499h1102v-256h-815v-369h723v-264h-723v-610h-287z" />
<glyph unicode="G" horiz-adv-x="1695" d="M82 748q0 160 61.5 302t167 247.5t246.5 167t301 61.5q203 0 372 -94.5t273 -251.5l-246 -150q-66 96 -171 161.5t-228 65.5q-102 0 -191 -41.5t-156 -111.5t-105.5 -163t-38.5 -193q0 -102 38.5 -194.5t105.5 -162t156 -111.5t191 -42q78 0 149.5 23.5t131 66.5 t103.5 102t65 131h-553v258h864q-2 -43 -2 -80q-2 -33 -2 -64.5t-2 -47.5q-12 -141 -77 -262t-166 -208t-233 -136.5t-278 -49.5q-160 0 -301 61.5t-246.5 167t-167 247t-61.5 301.5z" />
<glyph unicode="H" horiz-adv-x="1638" d="M164 0v1499h285v-647h741v647h285v-1499h-285v596h-741v-596h-285z" />
<glyph unicode="I" horiz-adv-x="696" d="M205 0v1497h287v-1497h-287z" />
<glyph unicode="J" horiz-adv-x="1247" d="M37 281l260 116q12 -29 32.5 -58.5t49.5 -53t66.5 -39t89.5 -15.5q88 0 140 35t80.5 86t38 106.5t9.5 98.5v940h287v-940q0 -131 -40 -239.5t-113 -185.5t-175.5 -119t-226.5 -42q-176 0 -304.5 82t-193.5 228z" />
<glyph unicode="K" horiz-adv-x="1505" d="M164 0v1499h287v-762l596 760h352l-617 -774l676 -723h-379l-628 682v-682h-287z" />
<glyph unicode="L" horiz-adv-x="1259" d="M164 0v1499h287v-1245h792v-254h-1079z" />
<glyph unicode="M" horiz-adv-x="1839" d="M164 0v1497h18l736 -864l737 864h18v-1497h-287v758l-468 -563l-467 563v-758h-287z" />
<glyph unicode="N" horiz-adv-x="1630" d="M164 0v1497h31l985 -905v905h286v-1497h-30l-987 891v-891h-285z" />
<glyph unicode="O" horiz-adv-x="1732" d="M88 750q0 160 61.5 302t167 247.5t247 167t300.5 61.5q162 0 303.5 -61.5t247 -167t166.5 -248t61 -301.5q0 -162 -61 -303.5t-166.5 -247t-247 -167t-303.5 -61.5q-160 0 -301 61.5t-246.5 167t-167 247t-61.5 303.5zM373 750q0 -102 39 -194.5t105.5 -163t155.5 -112.5 t191 -42t191.5 42t156 112.5t105.5 162.5t39 195q0 100 -39 193t-105.5 163t-156 112t-191.5 42t-191 -42t-155.5 -112t-105.5 -163t-39 -193z" />
<glyph unicode="P" horiz-adv-x="1388" d="M164 0v1499h667q111 0 208.5 -42t169 -113.5t113.5 -169t42 -207.5q0 -111 -37 -205t-108.5 -165t-181 -111t-253.5 -40h-333v-446h-287zM451 705h380q63 0 110.5 21.5t77.5 58t44 83.5t14 99q0 51 -18.5 101t-53 89t-86 63.5t-118.5 24.5h-350v-540z" />
<glyph unicode="Q" horiz-adv-x="1693" d="M88 762q0 158 60.5 297t164 242.5t241.5 164t296 60.5t297 -60.5t242.5 -164t164 -242.5t60.5 -297q0 -68 -15.5 -139.5t-50.5 -139t-89 -125t-134 -96.5h320v-264h-746q-209 0 -361.5 60.5t-253 164t-148.5 242.5t-48 297zM373 762q0 -98 38 -186.5t102.5 -155 t151.5 -105.5t185 -39t185 39t151.5 105.5t102.5 155t38 186.5t-38 187t-102.5 154.5t-151.5 104.5t-185 39t-185 -39t-151.5 -104.5t-102.5 -154.5t-38 -187z" />
<glyph unicode="R" horiz-adv-x="1474" d="M164 0v1499h680q115 0 210 -38t162.5 -106.5t105.5 -163.5t38 -208q0 -170 -85 -297t-226 -182q190 -250 374 -504h-342q-90 117 -176 235.5t-172 241.5h-284v-477h-285zM449 731h395q39 0 81 15.5t74.5 47t54 79t21.5 110.5q0 33 -8 78t-32.5 86t-69.5 69.5t-121 28.5 h-395v-514z" />
<glyph unicode="S" horiz-adv-x="1392" d="M104 197l156 229q113 -78 232.5 -134t250.5 -56q70 0 123.5 17t90 45t55 63.5t18.5 70.5q0 45 -27.5 77t-73.5 52.5t-108.5 34.5t-130.5 27q-45 8 -104.5 19t-123 30.5t-125 51.5t-110.5 80t-78.5 114.5t-29.5 156.5q0 131 53 218t136 137.5t184.5 71t195.5 20.5 t168 -12.5t137.5 -36t124 -59.5t129.5 -85l-160 -225q-106 74 -204.5 112.5t-206.5 38.5q-37 0 -84 -9t-89 -29.5t-69.5 -52t-27.5 -77.5q0 -45 32.5 -75.5t83.5 -51t112.5 -35t119.5 -28.5q43 -10 101 -20.5t120.5 -29t124 -49t109.5 -78.5t78 -119t30 -171 q0 -117 -41 -203t-117 -142t-180.5 -85t-230.5 -29q-117 0 -206 17.5t-163 47.5t-139.5 71t-135.5 90z" />
<glyph unicode="T" horiz-adv-x="1273" d="M96 1245v254h1145v-254h-428v-1245h-287v1245h-430z" />
<glyph unicode="U" horiz-adv-x="1613" d="M164 604v893h287v-893q0 -113 36.5 -186.5t91 -116.5t117 -59.5t111.5 -16.5t111.5 16.5t117 59.5t91 117t36.5 186v893h287v-893q0 -143 -45 -260t-129 -199t-203 -127t-266 -45q-145 0 -264 45t-203 127t-130 199t-46 260z" />
<glyph unicode="V" horiz-adv-x="1476" d="M27 1497h315l403 -868l404 868h317l-712 -1497h-17z" />
<glyph unicode="W" horiz-adv-x="2029" d="M27 1497h305l293 -821l381 821h18l381 -823l299 823h305l-559 -1497h-29l-405 872l-410 -874h-26z" />
<glyph unicode="X" horiz-adv-x="1544" d="M37 1497h358l389 -539l390 539h356l-567 -756l557 -741h-359l-377 522l-376 -522h-359l557 741z" />
<glyph unicode="Y" horiz-adv-x="1452" d="M16 1497h334q92 -154 188.5 -317.5t188.5 -317.5q45 72 94 154t98.5 165t97.5 163.5t91 152.5h334q-57 -94 -132 -215t-153 -247t-153.5 -247.5t-133.5 -220.5v-567h-286v567q-133 233 -282.5 465t-285.5 465z" />
<glyph unicode="Z" horiz-adv-x="1437" d="M43 0v33l838 1200h-775v264h1276v-35l-835 -1196h807v-266h-1311z" />
<glyph unicode="[" horiz-adv-x="798" d="M188 -324v2165h555v-256h-268v-1653h268v-256h-555z" />
<glyph unicode="\" horiz-adv-x="1009" d="M2 1708h272l738 -1991h-273z" />
<glyph unicode="]" horiz-adv-x="688" d="M0 -68h268v1653h-268v256h555v-2165h-555v256z" />
<glyph unicode="^" horiz-adv-x="1239" d="M92 764l369 747h299l368 -747h-290l-228 487l-229 -487h-289z" />
<glyph unicode="_" horiz-adv-x="1368" d="M109 0h1134v-252h-1134v252z" />
<glyph unicode="`" horiz-adv-x="581" d="M47 1786l236 102l239 -309h-200z" />
<glyph unicode="a" d="M12 0l766 1497h29l766 -1497h-311l-117 236h-707l-114 -236h-312zM578 485h428l-213 453z" />
<glyph unicode="b" horiz-adv-x="1423" d="M164 0v1499h659q90 0 170 -17.5t139.5 -63.5t94.5 -127t35 -208q0 -45 -18.5 -96t-50.5 -94t-77 -72.5t-98 -32.5q55 -4 109.5 -31.5t97.5 -74.5t70.5 -108.5t27.5 -131.5q0 -123 -37 -207.5t-100.5 -137t-148.5 -75t-181 -22.5h-692zM451 254h405q37 0 69.5 17.5 t57.5 47t39 65.5t14 73q0 76 -56 127t-155 51h-374v-381zM451 891h352q43 0 74.5 16.5t53 43t33 60t11.5 66.5t-12.5 63.5t-33 53.5t-48 37t-58.5 14h-372v-354z" />
<glyph unicode="c" horiz-adv-x="1593" d="M82 748q0 160 61.5 301t167 246.5t246.5 167t301 61.5q109 0 210 -29t188 -81t159 -124.5t121 -161.5l-268 -108q-33 49 -77 92t-97.5 76t-112.5 51t-123 18q-102 0 -191 -41.5t-155 -111.5t-104.5 -163t-38.5 -193q0 -102 38.5 -194.5t104.5 -162t155 -111.5t191 -42 q63 0 122.5 18t113 51t97.5 77t77 93l268 -108q-49 -90 -121 -163t-159 -125t-188 -81t-210 -29q-160 0 -301 61.5t-246.5 167t-167 247t-61.5 301.5z" />
<glyph unicode="d" horiz-adv-x="1609" d="M164 0v1499h592q322 0 528 -188q111 -100 167 -242.5t56 -318.5q0 -178 -56 -320.5t-167 -243.5q-100 -92 -234 -139t-294 -47h-592zM451 254h305q80 0 161.5 18.5t148.5 72.5t110 150.5t43 252.5t-43 253t-111 150t-149.5 71.5t-159.5 18.5h-305v-987z" />
<glyph unicode="e" horiz-adv-x="1398" d="M164 0v1499h1102v-254h-817v-375h725v-260h-725v-352h817v-258h-1102z" />
<glyph unicode="f" horiz-adv-x="1335" d="M164 0v1499h1102v-256h-815v-369h723v-264h-723v-610h-287z" />
<glyph unicode="g" horiz-adv-x="1695" d="M82 748q0 160 61.5 302t167 247.5t246.5 167t301 61.5q203 0 372 -94.5t273 -251.5l-246 -150q-66 96 -171 161.5t-228 65.5q-102 0 -191 -41.5t-156 -111.5t-105.5 -163t-38.5 -193q0 -102 38.5 -194.5t105.5 -162t156 -111.5t191 -42q78 0 149.5 23.5t131 66.5 t103.5 102t65 131h-553v258h864q-2 -43 -2 -80q-2 -33 -2 -64.5t-2 -47.5q-12 -141 -77 -262t-166 -208t-233 -136.5t-278 -49.5q-160 0 -301 61.5t-246.5 167t-167 247t-61.5 301.5z" />
<glyph unicode="h" horiz-adv-x="1638" d="M164 0v1499h285v-647h741v647h285v-1499h-285v596h-741v-596h-285z" />
<glyph unicode="i" horiz-adv-x="696" d="M205 0v1497h287v-1497h-287z" />
<glyph unicode="j" horiz-adv-x="1247" d="M37 281l260 116q12 -29 32.5 -58.5t49.5 -53t66.5 -39t89.5 -15.5q88 0 140 35t80.5 86t38 106.5t9.5 98.5v940h287v-940q0 -131 -40 -239.5t-113 -185.5t-175.5 -119t-226.5 -42q-176 0 -304.5 82t-193.5 228z" />
<glyph unicode="k" horiz-adv-x="1505" d="M164 0v1499h287v-762l596 760h352l-617 -774l676 -723h-379l-628 682v-682h-287z" />
<glyph unicode="l" horiz-adv-x="1259" d="M164 0v1499h287v-1245h792v-254h-1079z" />
<glyph unicode="m" horiz-adv-x="1839" d="M164 0v1497h18l736 -864l737 864h18v-1497h-287v758l-468 -563l-467 563v-758h-287z" />
<glyph unicode="n" horiz-adv-x="1630" d="M164 0v1497h31l985 -905v905h286v-1497h-30l-987 891v-891h-285z" />
<glyph unicode="o" horiz-adv-x="1732" d="M88 750q0 160 61.5 302t167 247.5t247 167t300.5 61.5q162 0 303.5 -61.5t247 -167t166.5 -248t61 -301.5q0 -162 -61 -303.5t-166.5 -247t-247 -167t-303.5 -61.5q-160 0 -301 61.5t-246.5 167t-167 247t-61.5 303.5zM373 750q0 -102 39 -194.5t105.5 -163t155.5 -112.5 t191 -42t191.5 42t156 112.5t105.5 162.5t39 195q0 100 -39 193t-105.5 163t-156 112t-191.5 42t-191 -42t-155.5 -112t-105.5 -163t-39 -193z" />
<glyph unicode="p" horiz-adv-x="1388" d="M164 0v1499h667q111 0 208.5 -42t169 -113.5t113.5 -169t42 -207.5q0 -111 -37 -205t-108.5 -165t-181 -111t-253.5 -40h-333v-446h-287zM451 705h380q63 0 110.5 21.5t77.5 58t44 83.5t14 99q0 51 -18.5 101t-53 89t-86 63.5t-118.5 24.5h-350v-540z" />
<glyph unicode="q" horiz-adv-x="1693" d="M88 762q0 158 60.5 297t164 242.5t241.5 164t296 60.5t297 -60.5t242.5 -164t164 -242.5t60.5 -297q0 -68 -15.5 -139.5t-50.5 -139t-89 -125t-134 -96.5h320v-264h-746q-209 0 -361.5 60.5t-253 164t-148.5 242.5t-48 297zM373 762q0 -98 38 -186.5t102.5 -155 t151.5 -105.5t185 -39t185 39t151.5 105.5t102.5 155t38 186.5t-38 187t-102.5 154.5t-151.5 104.5t-185 39t-185 -39t-151.5 -104.5t-102.5 -154.5t-38 -187z" />
<glyph unicode="r" horiz-adv-x="1474" d="M164 0v1499h680q115 0 210 -38t162.5 -106.5t105.5 -163.5t38 -208q0 -170 -85 -297t-226 -182q190 -250 374 -504h-342q-90 117 -176 235.5t-172 241.5h-284v-477h-285zM449 731h395q39 0 81 15.5t74.5 47t54 79t21.5 110.5q0 33 -8 78t-32.5 86t-69.5 69.5t-121 28.5 h-395v-514z" />
<glyph unicode="s" horiz-adv-x="1392" d="M104 197l156 229q113 -78 232.5 -134t250.5 -56q70 0 123.5 17t90 45t55 63.5t18.5 70.5q0 45 -27.5 77t-73.5 52.5t-108.5 34.5t-130.5 27q-45 8 -104.5 19t-123 30.5t-125 51.5t-110.5 80t-78.5 114.5t-29.5 156.5q0 131 53 218t136 137.5t184.5 71t195.5 20.5 t168 -12.5t137.5 -36t124 -59.5t129.5 -85l-160 -225q-106 74 -204.5 112.5t-206.5 38.5q-37 0 -84 -9t-89 -29.5t-69.5 -52t-27.5 -77.5q0 -45 32.5 -75.5t83.5 -51t112.5 -35t119.5 -28.5q43 -10 101 -20.5t120.5 -29t124 -49t109.5 -78.5t78 -119t30 -171 q0 -117 -41 -203t-117 -142t-180.5 -85t-230.5 -29q-117 0 -206 17.5t-163 47.5t-139.5 71t-135.5 90z" />
<glyph unicode="t" horiz-adv-x="1273" d="M96 1245v254h1145v-254h-428v-1245h-287v1245h-430z" />
<glyph unicode="u" horiz-adv-x="1613" d="M164 604v893h287v-893q0 -113 36.5 -186.5t91 -116.5t117 -59.5t111.5 -16.5t111.5 16.5t117 59.5t91 117t36.5 186v893h287v-893q0 -143 -45 -260t-129 -199t-203 -127t-266 -45q-145 0 -264 45t-203 127t-130 199t-46 260z" />
<glyph unicode="v" horiz-adv-x="1476" d="M27 1497h315l403 -868l404 868h317l-712 -1497h-17z" />
<glyph unicode="w" horiz-adv-x="2029" d="M27 1497h305l293 -821l381 821h18l381 -823l299 823h305l-559 -1497h-29l-405 872l-410 -874h-26z" />
<glyph unicode="x" horiz-adv-x="1544" d="M37 1497h358l389 -539l390 539h356l-567 -756l557 -741h-359l-377 522l-376 -522h-359l557 741z" />
<glyph unicode="y" horiz-adv-x="1452" d="M16 1497h334q92 -154 188.5 -317.5t188.5 -317.5q45 72 94 154t98.5 165t97.5 163.5t91 152.5h334q-57 -94 -132 -215t-153 -247t-153.5 -247.5t-133.5 -220.5v-567h-286v567q-133 233 -282.5 465t-285.5 465z" />
<glyph unicode="z" horiz-adv-x="1437" d="M43 0v33l838 1200h-775v264h1276v-35l-835 -1196h807v-266h-1311z" />
<glyph unicode="{" horiz-adv-x="843" d="M100 616v283q51 6 78 30.5t37 62.5t10 89.5v108.5q0 43 1 102.5t11.5 125t34 130t70.5 119.5q61 74 138 115t145.5 59.5t119 22.5t62.5 4v-275l-29 -2q-28 -2 -68 -11t-83 -30.5t-76 -58.5q-20 -25 -30.5 -63.5t-15.5 -80.5t-5 -83v-68q2 -35 3 -96.5t-8.5 -128t-32 -126 t-67.5 -87.5q45 -49 66.5 -102.5t29 -108.5t6.5 -112.5t3 -115.5v-68.5t5 -81.5t15.5 -80.5t30.5 -63.5q33 -39 76 -59.5t83 -31t68 -12.5l29 -2v-274h-2q-14 0 -65.5 4t-120 24.5t-142.5 60.5t-135 113q-47 55 -70.5 120t-34 129.5t-11.5 125t-1 103.5q0 72 1 122t-8 84.5 t-35.5 54t-82.5 29.5z" />
<glyph unicode="|" horiz-adv-x="585" d="M188 -217v1929h207v-1929h-207z" />
<glyph unicode="}" horiz-adv-x="843" d="M35 -80l29 2q28 2 68 12.5t83 31t76 59.5q20 25 30.5 63.5t15.5 80.5t5 82v68q4 57 3 115t6 113t27.5 108.5t67.5 102.5q-45 29 -67.5 88t-31.5 125.5t-9 128t4 96.5v68t-5 83t-15.5 80.5t-30.5 63.5q-33 37 -76 58.5t-83 30.5t-68 11l-29 2v275q12 0 62 -4t119 -22.5 t145.5 -59.5t138.5 -115q45 -55 69.5 -119.5t34.5 -130t11 -125t1 -102.5v-108.5t10.5 -89.5t36 -62.5t78.5 -30.5v-283q-55 -10 -81.5 -29.5t-36 -54t-8.5 -85t1 -121.5q0 -43 -1 -103.5t-11 -125t-34.5 -129t-69.5 -120.5q-61 -74 -135 -113.5t-142.5 -60t-120 -24.5 t-65.5 -4h-2v274z" />
<glyph unicode="~" horiz-adv-x="1175" d="M90 758q8 33 30.5 71.5t57.5 73.5t84 58.5t115 23.5h2q72 0 126 -24.5t101 -53.5q39 -23 73 -39t75 -18q10 0 38.5 6t61.5 47q20 27 29 47q6 10 10 23l174 -58q-12 -35 -36.5 -77.5t-62.5 -80.5t-91 -63.5t-121 -25.5h-4q-78 2 -135.5 27.5t-104.5 54.5q-37 23 -68.5 38 t-66.5 15q-29 0 -49.5 -14.5t-34.5 -32t-20.5 -32.5t-8.5 -19z" />
<glyph unicode="&#xa1;" horiz-adv-x="600" d="M145 0l52 1061h204l52 -1061h-308zM156 1192v305h286v-305h-286z" />
<glyph unicode="&#xa2;" horiz-adv-x="1267" d="M78 745q0 106 34.5 202.5t96 175.5t146.5 135.5t184 80.5v187h286v-183q129 -29 233.5 -108.5t168.5 -194.5l-258 -104q-23 33 -49.5 63.5t-60.5 53t-76 37t-93 14.5q-70 0 -131 -25.5t-107 -73t-73 -113t-27 -147.5q0 -80 27 -145t73 -112.5t107 -74t131 -26.5 q55 0 96 13.5t73 35t56.5 50t47.5 59.5l258 -105q-63 -111 -165 -187.5t-231 -105.5v-172h-286v177q-98 25 -183.5 81t-147 133.5t-96 175t-34.5 203.5z" />
<glyph unicode="&#xa3;" horiz-adv-x="1259" d="M106 0v246q18 8 42 21.5t47.5 36t44 57t32.5 83.5q12 47 7 96.5t-15 94.5h-153v225h122l-18 150q-10 117 24.5 211t103.5 161.5t165 104.5t211 37q121 0 209 -41t148.5 -101.5t96 -129t52.5 -124.5l-267 -84q-10 45 -33.5 86t-56 72t-71.5 49.5t-78 18.5 q-123 0 -178.5 -61.5t-46.5 -176.5q4 -37 8 -85t10 -87h434v-225h-401q8 -82 1 -147.5t-22.5 -113.5t-38 -80t-43.5 -44h725v-250h-1061z" />
<glyph unicode="&#xa5;" horiz-adv-x="1253" d="M18 1501h332l275 -475l274 475h332l-406 -700h283v-185h-340v-176h340v-182h-340v-258h-287v258h-321v182h321v176h-321v185h266z" />
<glyph unicode="&#xa6;" horiz-adv-x="585" d="M188 -217v792h207v-792h-207zM188 918v794h207v-794h-207z" />
<glyph unicode="&#xa7;" horiz-adv-x="1085" d="M90 139l125 176q16 -10 49 -32.5t77 -45t97.5 -40t112.5 -17.5q29 0 63.5 7.5t64.5 21.5t50.5 35.5t20.5 52.5t-20.5 50.5t-53.5 31.5t-76 22.5t-88 22.5q-45 8 -115.5 24.5t-138.5 52.5t-116 94t-48 155q0 57 24.5 101t56.5 73.5t62.5 46t41.5 20.5q-86 23 -135.5 89.5 t-49.5 140.5q0 100 51.5 160.5t119 92t134 41t99.5 9.5q117 0 220 -35t210 -109l-129 -174q-78 63 -152 90t-153 27q-90 0 -129 -27.5t-39 -72.5q0 -35 27.5 -58.5t67.5 -39t83 -24.5t71 -16q45 -10 115 -28.5t133.5 -54t109.5 -95t46 -151.5q0 -86 -42 -144.5t-101 -74.5 q33 -10 60.5 -36t46 -60.5t28.5 -72.5t10 -71q0 -86 -38 -147.5t-98.5 -101.5t-136 -58.5t-153.5 -18.5q-84 0 -160 20.5t-136 48.5t-104 56.5t-65 42.5zM285 780q0 -18 6 -43q10 -35 53 -59.5t96.5 -40.5t104.5 -24.5t80 -8.5q27 0 55.5 8.5t51 25.5t36.5 42t14 55 q0 33 -30.5 66t-77.5 57.5t-106.5 39.5t-114.5 15q4 0 -21.5 -1t-58.5 -13t-60.5 -40t-27.5 -79z" />
<glyph unicode="&#xa8;" horiz-adv-x="847" d="M76 1735q0 59 41 99t100 40t98 -40t39 -99t-39 -98.5t-98 -39.5t-100 39.5t-41 98.5zM494 1735q0 59 39.5 99t99.5 40q59 0 99 -40t40 -99t-40 -98.5t-99 -39.5t-99 39.5t-40 98.5z" />
<glyph unicode="&#xa9;" horiz-adv-x="1691" d="M76 745q0 160 60.5 300.5t165 245t244.5 165t300 60.5t300 -60.5t244.5 -165t165 -245t60.5 -300.5t-60.5 -300t-165 -244.5t-244.5 -165t-300 -60.5t-300 60.5t-244.5 165t-165 245t-60.5 299.5zM268 745q0 -119 46 -224t124 -183t183.5 -124t224.5 -46t223.5 46 t183 124t123.5 183.5t45 223.5q0 119 -45 223.5t-123.5 183.5t-183 124t-223.5 45t-224.5 -45t-183.5 -124t-124 -183.5t-46 -223.5zM432 745q0 -86 33 -160.5t89 -131t131 -89t161 -32.5q117 0 212 59.5t148 155.5l-149 59q-35 -51 -90.5 -81.5t-120.5 -30.5 q-53 0 -99.5 19t-80 54t-54 80t-20.5 98q0 51 20.5 97.5t54 81t80 54t99.5 19.5q70 0 126 -33.5t91 -89.5l149 60q-53 100 -149 161.5t-217 61.5q-86 0 -161 -32.5t-131 -88t-89 -130.5t-33 -161z" />
<glyph unicode="&#xaa;" horiz-adv-x="745" d="M90 633v139h553v-139h-553zM96 1073q-6 96 56 158q23 25 50 39t55 22t53.5 10.5t43.5 2.5q41 -2 76 -10.5t64 -26.5q2 59 -17.5 85.5t-52.5 41.5q-41 16 -80 14t-70.5 -12.5t-57.5 -24.5t-40 -22l-70 110q2 2 36 18.5t87 32.5q150 43 252 -2q51 -25 82 -56.5t46.5 -69 t19.5 -79.5t4 -83v-336h-139v37q-23 -23 -54.5 -33t-66.5 -12h-11q-119 0 -190.5 52t-75.5 144zM233 1081q0 -10 6.5 -23.5t20.5 -25.5t41 -20t70 -8q55 0 89 22.5t34 85.5v14q-16 10 -50 27.5t-92 17.5q-66 2 -102 -34q-6 -4 -11.5 -17.5t-5.5 -38.5z" />
<glyph unicode="&#xab;" horiz-adv-x="1388" d="M111 752l305 479h293l-318 -479l320 -473h-297zM674 752l307 479h291l-316 -479l320 -473h-297z" />
<glyph unicode="&#xac;" horiz-adv-x="1206" d="M98 778v252h992v-604h-287v352h-705z" />
<glyph unicode="&#xad;" horiz-adv-x="1705" />
<glyph unicode="&#xae;" horiz-adv-x="1693" d="M72 748q0 160 60.5 300t164.5 244.5t244.5 165t300.5 60.5t300 -60.5t245.5 -165t166 -245t60.5 -299.5q0 -160 -60.5 -300.5t-166 -246t-245.5 -166t-300 -60.5t-300.5 60.5t-244.5 166t-164.5 246t-60.5 300.5zM264 748q0 -119 46 -224.5t124 -183.5t183.5 -124 t224.5 -46t224 46t183 124t124 183.5t46 224.5t-46 224t-124 183t-183 124t-224 46t-224.5 -46t-183.5 -124t-124 -183.5t-46 -223.5zM575 412h160v182h96q35 -47 70 -91t68 -91h198q-37 53 -75.5 104t-79.5 105q59 31 94 88t35 133q0 111 -67.5 178t-178.5 67h-320v-675z M735 756v172h160q29 0 57.5 -16.5t28.5 -69.5q0 -31 -10 -47.5t-24.5 -25.5t-29 -11t-22.5 -2h-160z" />
<glyph unicode="&#xaf;" horiz-adv-x="808" d="M66 1642v189h671v-189h-671z" />
<glyph unicode="&#xb0;" horiz-adv-x="688" d="M84 1499q0 53 20.5 100.5t55.5 83t83 56t101 20.5t100.5 -20.5t82 -56t55 -83t20.5 -100.5t-20.5 -101t-55 -83t-82 -55.5t-100.5 -20.5t-101 20.5t-83 55.5t-55.5 83t-20.5 101zM244 1499q0 -41 29.5 -69.5t70.5 -28.5t69.5 28.5t28.5 69.5t-28.5 69.5t-69.5 28.5 t-70.5 -28.5t-29.5 -69.5z" />
<glyph unicode="&#xb1;" horiz-adv-x="1124" d="M127 0v252h856v-252h-856zM127 719v248h283v313h290v-313h283v-248h-283v-311h-290v311h-283z" />
<glyph unicode="&#xb2;" horiz-adv-x="815" d="M53 1454q10 35 35 82t67 89t101 71.5t139 29.5q86 0 150.5 -26.5t105.5 -69.5t61.5 -97t20.5 -110q0 -113 -55 -191.5t-152 -156.5q-35 -31 -96 -80t-117 -96h432v-164h-675v187q27 20 69.5 57t92 78t98.5 83t86 72q45 37 71.5 66t40 53.5t16.5 47t3 44.5q0 39 -14.5 66 t-36 42t-48 22.5t-53.5 7.5q-45 0 -75.5 -22.5t-49 -50.5t-26.5 -52.5t-11 -30.5v2z" />
<glyph unicode="&#xb3;" horiz-adv-x="786" d="M31 979l178 51q2 -6 7 -30.5t21.5 -53t47 -51.5t84.5 -23q78 0 115.5 36t37.5 83q0 51 -16.5 82t-47 47.5t-76.5 23.5t-106 9v143q57 2 103.5 7.5t78 19.5t48 42t16.5 77q0 47 -38 82t-115 35q-53 0 -84 -23t-47.5 -50.5t-21.5 -53t-7 -29.5l-178 51q10 35 31.5 82 t61.5 89t99.5 70.5t145.5 28.5q94 0 158.5 -25.5t104.5 -66.5t58.5 -91t18.5 -99q0 -53 -14.5 -91t-37 -63.5t-51 -41t-55.5 -27.5q27 -10 54.5 -25.5t51 -42.5t38 -65.5t14.5 -94.5q0 -27 -10.5 -74t-47.5 -94q-29 -35 -63.5 -57.5t-72.5 -34.5t-76 -17t-70 -5 q-86 0 -145.5 28.5t-99.5 70.5t-61.5 89t-31.5 82z" />
<glyph unicode="&#xb4;" horiz-adv-x="602" d="M61 1579l240 309l238 -102l-275 -207h-203z" />
<glyph unicode="&#xb6;" horiz-adv-x="1114" d="M51 1055q0 80 15.5 159.5t71 143t160.5 103.5t284 40h370v-1501h-192v1386h-148v-1386h-192v653q-68 0 -134.5 24.5t-118.5 75t-84 126t-32 176.5z" />
<glyph unicode="&#xb7;" horiz-adv-x="393" d="M51 852q0 61 44 105t106 44q63 0 107 -44t44 -105q0 -63 -44 -107.5t-107 -44.5q-61 0 -105.5 44t-44.5 108z" />
<glyph unicode="&#xb8;" horiz-adv-x="471" d="M37 -334l51 101q8 -8 25 -17q14 -6 36.5 -12t57.5 -4q25 0 44 14t19 43t-23.5 37t-43.5 8q-23 -2 -42.5 -6t-33.5 -8q-16 -6 -31 -12l-28 47l65 166h131l-35 -74q6 2 29.5 3t52.5 -9q113 -39 105 -164q-4 -63 -32 -97t-62.5 -50.5t-67.5 -19.5t-47 -3q-43 0 -74 9t-53 20 q-25 12 -43 28z" />
<glyph unicode="&#xb9;" horiz-adv-x="585" d="M-8 1386l338 322h119v-977h-187v655l-141 -135z" />
<glyph unicode="&#xba;" horiz-adv-x="808" d="M80 1202q0 68 25.5 126t68.5 101.5t101.5 69t125.5 25.5q68 0 126.5 -25.5t102.5 -69t69.5 -101.5t25.5 -126t-25.5 -126t-69.5 -102t-102.5 -69.5t-126.5 -25.5t-126 25.5t-101 69.5t-68.5 102.5t-25.5 125.5zM117 633v139h571v-139h-571zM217 1202q0 -39 14.5 -73.5 t40 -61.5t59.5 -43t70 -16q39 0 73 16t58.5 43t39 61.5t14.5 73.5q0 37 -14.5 73t-39 62.5t-58.5 43t-73 16.5q-37 0 -70.5 -16.5t-59 -43t-40 -62.5t-14.5 -73z" />
<glyph unicode="&#xbb;" horiz-adv-x="1388" d="M111 279l319 473l-315 479h291l307 -479l-305 -473h-297zM676 279l319 473l-317 479h293l305 -479l-303 -473h-297z" />
<glyph unicode="&#xbc;" horiz-adv-x="1789" d="M-8 1182l338 321h119v-977h-187v656l-141 -135zM268 0l895 1501h189l-893 -1501h-191zM909 217v160l512 600h142v-596h118v-164h-118v-217h-187v217h-467zM1147 381h229v281z" />
<glyph unicode="&#xbd;" horiz-adv-x="1789" d="M-8 1182l338 321h119v-977h-187v656l-141 -135zM268 0l895 1501h189l-893 -1501h-191zM1036 719q10 35 35 82t67 89t101 71.5t139 29.5q86 0 150.5 -26.5t105.5 -69.5t61.5 -97.5t20.5 -109.5q0 -113 -55 -191.5t-152 -156.5q-35 -31 -96 -80t-117 -96h433v-164h-676v186 q27 20 69.5 57.5t92 78t98.5 82.5t86 73q45 37 71.5 65.5t40 53.5t16.5 47.5t3 44.5q0 39 -14.5 65.5t-36 42t-48 22.5t-53.5 7q-45 0 -75.5 -22.5t-49 -50t-26.5 -52t-10 -30.5v2z" />
<glyph unicode="&#xbe;" horiz-adv-x="1961" d="M25 764l178 51q2 -6 7 -30.5t21.5 -53.5t47 -51.5t83.5 -22.5q78 0 116 36t38 83q0 51 -16.5 82t-47 47.5t-76.5 23.5t-106 9v143q57 2 103.5 7.5t78 19.5t48 42t16.5 77q0 47 -38 81.5t-116 34.5q-53 0 -83.5 -22.5t-47 -50t-21.5 -53t-7 -29.5l-178 51q10 35 31.5 82 t61.5 89t99 70.5t145 28.5q94 0 159 -25.5t105 -66.5t58 -91t18 -99q0 -53 -14 -91t-36.5 -63.5t-51 -41t-55.5 -27.5q27 -10 54.5 -25.5t51 -42.5t37.5 -66t14 -94q0 -27 -10 -74t-47 -94q-29 -35 -63.5 -57.5t-72.5 -34.5t-76 -17t-71 -5q-86 0 -145 28.5t-99 70.5 t-61.5 89t-31.5 82zM473 0l895 1501h188l-892 -1501h-191zM1114 217v160l512 600h141v-596h119v-164h-119v-217h-186v217h-467zM1352 381h229v281z" />
<glyph unicode="&#xbf;" horiz-adv-x="1196" d="M86 430q0 -109 47 -188.5t121 -134t167 -81t185 -26.5q150 0 251 51t165.5 120t97.5 137.5t45 105.5l-272 88q-12 -37 -32.5 -79t-54.5 -77t-83 -58.5t-117 -23.5q-82 0 -128 21.5t-69.5 49t-29.5 55.5t-6 40q0 35 7 58.5t24.5 42t44 35t67.5 38.5q53 29 107.5 62.5 t97.5 93.5q68 94 87 186t15 158h-286q4 -29 -4.5 -78t-43.5 -98q-20 -29 -57 -49.5t-82 -44t-92 -54t-85 -77t-62.5 -113t-24.5 -160.5zM532 1233v305h287v-305h-287z" />
<glyph unicode="&#xc0;" d="M12 0h312l114 236h707l117 -236h311l-766 1497h-29zM412 1778l235 102l240 -309h-201zM578 485l215 453l213 -453h-428z" />
<glyph unicode="&#xc1;" d="M12 0l766 1497h29l766 -1497h-311l-117 236h-707l-114 -236h-312zM578 485h428l-213 453zM696 1571l240 309l238 -102l-275 -207h-203z" />
<glyph unicode="&#xc2;" d="M12 0l766 1497h29l766 -1497h-311l-117 236h-707l-114 -236h-312zM422 1565l250 315h239l252 -313h-229l-146 143l-137 -145h-229zM578 485h428l-213 453z" />
<glyph unicode="&#xc3;" d="M12 0h312l114 236h707l117 -236h311l-766 1497h-29zM383 1624q8 33 27.5 76t51.5 81t76 63.5t101 27.5q84 2 132 -30t79 -60q23 -23 39 -32t45 -11q25 -2 43 13t31 32q14 20 26 47l166 -59q-8 -23 -24.5 -56t-45.5 -65q-41 -47 -90 -72t-104 -25h-8q-76 4 -120 34t-75 59 q-23 23 -40 33t-50 10q-23 0 -39 -17.5t-27.5 -39t-18.5 -39.5l-7 -17zM578 485l215 453l213 -453h-428z" />
<glyph unicode="&#xc4;" d="M12 0h312l114 236h707l117 -236h311l-766 1497h-29zM444 1706q0 59 41 99t101 40q59 0 98 -40t39 -99t-39 -98t-98 -39t-100.5 39t-41.5 98zM578 485l215 453l213 -453h-428zM862 1706q0 59 40 99t99 40t99.5 -40t40.5 -99t-40 -98t-100 -39q-59 0 -99 39t-40 98z" />
<glyph unicode="&#xc5;" d="M12 0l733 1432q-76 16 -125 76.5t-49 140.5q0 45 17.5 85t47.5 69.5t69.5 47t87.5 17.5q45 0 85 -17.5t69.5 -47t47 -69.5t17.5 -85q0 -80 -49.5 -140.5t-122.5 -76.5l733 -1432h-311l-117 236h-707l-114 -236h-312zM578 485h428l-213 453zM709 1649q0 -35 24.5 -59.5 t59.5 -24.5t58 24.5t23 59.5t-23 58.5t-58 23.5t-59.5 -24t-24.5 -58z" />
<glyph unicode="&#xc6;" horiz-adv-x="2174" d="M-25 0l990 1501h1077v-258h-817v-371h725v-262h-725v-350h817v-260h-1104v252h-473l-166 -252h-324zM631 506h307v485z" />
<glyph unicode="&#xc7;" horiz-adv-x="1593" d="M82 748q0 160 61.5 301t167 246.5t246.5 167t301 61.5q109 0 210 -29t188 -81t159 -124.5t121 -161.5l-268 -108q-33 49 -77 92t-97.5 76t-112.5 51t-123 18q-102 0 -191 -41.5t-155 -111.5t-104.5 -163t-38.5 -193q0 -102 38.5 -194.5t104.5 -162t155 -111.5t191 -42 q63 0 122.5 18t113 51t97.5 77t77 93l268 -108q-47 -84 -112.5 -154t-146.5 -121t-175 -82.5t-195 -38.5l-28 -63q6 2 29.5 3t52.5 -9q113 -39 104 -164q-4 -63 -31.5 -97t-62.5 -50.5t-68 -19.5t-47 -3q-43 0 -73.5 9t-53.5 20q-25 12 -43 28l51 101q8 -8 25 -17 q14 -6 36.5 -12t57.5 -4q25 0 44.5 14.5t19.5 42.5q0 29 -24 37t-44 8q-23 -2 -42 -6t-34 -8q-16 -6 -31 -12l-28 47l61 157q-147 14 -274 81t-220.5 170.5t-147.5 236.5t-54 285z" />
<glyph unicode="&#xc8;" horiz-adv-x="1398" d="M164 0h1102v258h-817v352h725v260h-725v375h817v254h-1102v-1499zM420 1778l235 102l240 -309h-201z" />
<glyph unicode="&#xc9;" horiz-adv-x="1398" d="M164 0v1499h1102v-254h-817v-375h725v-260h-725v-352h817v-258h-1102zM522 1571l240 309l237 -102l-274 -207h-203z" />
<glyph unicode="&#xca;" horiz-adv-x="1398" d="M164 0v1499h1102v-254h-817v-375h725v-260h-725v-352h817v-258h-1102zM350 1565l250 315h240l252 -313h-230l-145 143l-137 -145h-230z" />
<glyph unicode="&#xcb;" horiz-adv-x="1398" d="M164 0h1102v258h-817v352h725v260h-725v375h817v254h-1102v-1499zM371 1726q0 59 41 99.5t100 40.5t98 -40t39 -100q0 -59 -39 -98t-98 -39t-100 39t-41 98zM788 1726q0 59 40 99.5t100 40.5q59 0 99 -40t40 -100q0 -59 -40 -98t-99 -39t-99.5 39t-40.5 98z" />
<glyph unicode="&#xcc;" horiz-adv-x="696" d="M12 1778l236 102l239 -309h-200zM205 0v1497h287v-1497h-287z" />
<glyph unicode="&#xcd;" horiz-adv-x="696" d="M205 0v1497h287v-1497h-287zM205 1571l239 309l238 -102l-274 -207h-203z" />
<glyph unicode="&#xce;" horiz-adv-x="696" d="M-23 1565l250 315h240l252 -313h-230l-145 143l-137 -145h-230zM205 0v1497h287v-1497h-287z" />
<glyph unicode="&#xcf;" horiz-adv-x="696" d="M0 1726q0 59 41 99.5t100 40.5t98.5 -40t39.5 -100q0 -59 -39 -98t-99 -39q-59 0 -100 39t-41 98zM205 0v1497h287v-1497h-287zM418 1726q0 59 40 99.5t99 40.5t99 -40t40 -100q0 -59 -40 -98t-99 -39t-99 39t-40 98z" />
<glyph unicode="&#xd0;" horiz-adv-x="1671" d="M59 616v252h166v631h592q322 0 529 -188q111 -100 167 -242.5t56 -318.5q0 -178 -56.5 -320.5t-166.5 -243.5q-100 -92 -234.5 -139t-294.5 -47h-592v616h-166zM512 254h305q80 0 162 18.5t148.5 72.5t109.5 150.5t43 252.5t-43 253t-110.5 150t-149.5 71.5t-160 18.5 h-305v-373h258v-252h-258v-362z" />
<glyph unicode="&#xd1;" horiz-adv-x="1630" d="M164 0h285v891l987 -891h30v1497h-286v-905l-985 905h-31v-1497zM385 1624q8 33 27.5 76t51.5 81t76 63.5t101 27.5q84 2 132 -30t79 -60q23 -23 39 -32t45 -11q25 -2 43 13t31 32q14 20 26 47l166 -59q-8 -23 -24.5 -56t-44.5 -65q-41 -47 -90.5 -72t-104.5 -25h-8 q-76 4 -120 34t-75 59q-23 23 -40 33t-50 10q-23 0 -39 -17.5t-27.5 -39t-18.5 -39.5l-7 -17z" />
<glyph unicode="&#xd2;" horiz-adv-x="1732" d="M88 750q0 160 61.5 302t167 247.5t247 167t300.5 61.5q162 0 303.5 -61.5t247 -167t166.5 -248t61 -301.5q0 -162 -61 -303.5t-166.5 -247t-247 -167t-303.5 -61.5q-160 0 -301 61.5t-246.5 167t-167 247t-61.5 303.5zM373 750q0 -102 39 -194.5t105.5 -163t155.5 -112.5 t191 -42t191.5 42t156 112.5t105.5 162.5t39 195q0 100 -39 193t-105.5 163t-156 112t-191.5 42t-191 -42t-155.5 -112t-105.5 -163t-39 -193zM547 1778l235 102l240 -309h-201z" />
<glyph unicode="&#xd3;" horiz-adv-x="1732" d="M88 750q0 160 61.5 302t167 247.5t247 167t300.5 61.5q162 0 303.5 -61.5t247 -167t166.5 -248t61 -301.5q0 -162 -61 -303.5t-166.5 -247t-247 -167t-303.5 -61.5q-160 0 -301 61.5t-246.5 167t-167 247t-61.5 303.5zM373 750q0 -102 39 -194.5t105.5 -163t155.5 -112.5 t191 -42t191.5 42t156 112.5t105.5 162.5t39 195q0 100 -39 193t-105.5 163t-156 112t-191.5 42t-191 -42t-155.5 -112t-105.5 -163t-39 -193zM688 1571l240 309l237 -102l-274 -207h-203z" />
<glyph unicode="&#xd4;" horiz-adv-x="1732" d="M88 750q0 160 61.5 302t167 247.5t247 167t300.5 61.5q162 0 303.5 -61.5t247 -167t166.5 -248t61 -301.5q0 -162 -61 -303.5t-166.5 -247t-247 -167t-303.5 -61.5q-160 0 -301 61.5t-246.5 167t-167 247t-61.5 303.5zM373 750q0 -102 39 -194.5t105.5 -163t155.5 -112.5 t191 -42t191.5 42t156 112.5t105.5 162.5t39 195q0 100 -39 193t-105.5 163t-156 112t-191.5 42t-191 -42t-155.5 -112t-105.5 -163t-39 -193zM498 1565l250 315h239l252 -313h-229l-146 143l-137 -145h-229z" />
<glyph unicode="&#xd5;" horiz-adv-x="1732" d="M88 750q0 160 61.5 302t167 247.5t247 167t300.5 61.5q162 0 303.5 -61.5t247 -167t166.5 -248t61 -301.5q0 -162 -61 -303.5t-166.5 -247t-247 -167t-303.5 -61.5q-160 0 -301 61.5t-246.5 167t-167 247t-61.5 303.5zM373 750q0 -102 39 -194.5t105.5 -163t155.5 -112.5 t191 -42t191.5 42t156 112.5t105.5 162.5t39 195q0 100 -39 193t-105.5 163t-156 112t-191.5 42t-191 -42t-155.5 -112t-105.5 -163t-39 -193zM457 1624q8 33 27.5 76t51 81t75.5 63.5t102 27.5q84 2 132 -30t79 -60q23 -23 39 -32t45 -11q25 -2 43 13t30 32q14 20 27 47 l166 -59q-8 -23 -24.5 -56t-45.5 -65q-41 -47 -90 -72t-104 -25h-9q-76 4 -119.5 34t-74.5 59q-23 23 -40 33t-50 10q-23 0 -39 -17.5t-27.5 -39t-18.5 -39.5l-7 -17z" />
<glyph unicode="&#xd6;" horiz-adv-x="1732" d="M88 750q0 160 61.5 302t167 247.5t247 167t300.5 61.5q162 0 303.5 -61.5t247 -167t166.5 -248t61 -301.5q0 -162 -61 -303.5t-166.5 -247t-247 -167t-303.5 -61.5q-160 0 -301 61.5t-246.5 167t-167 247t-61.5 303.5zM373 750q0 -102 39 -194.5t105.5 -163t155.5 -112.5 t191 -42t191.5 42t156 112.5t105.5 162.5t39 195q0 100 -39 193t-105.5 163t-156 112t-191.5 42t-191 -42t-155.5 -112t-105.5 -163t-39 -193zM514 1726q0 59 41 99.5t100 40.5t98.5 -40t39.5 -100q0 -59 -39 -98t-99 -39q-59 0 -100 39t-41 98zM932 1726q0 59 40 99.5 t99 40.5t99 -40t40 -100q0 -59 -40 -98t-99 -39t-99 39t-40 98z" />
<glyph unicode="&#xd7;" horiz-adv-x="1032" d="M51 1042l197 195l262 -260l266 262l197 -195l-266 -264l264 -266l-197 -195l-264 265l-262 -262l-195 196l262 262z" />
<glyph unicode="&#xd8;" horiz-adv-x="1732" d="M88 750q0 160 61.5 302t167 247.5t247 167t300.5 61.5q121 0 230.5 -35t203.5 -98l125 143l156 -137l-127 -144q90 -104 140 -233t50 -274q0 -162 -61 -303.5t-166.5 -247t-247 -167t-303.5 -61.5q-121 0 -229.5 34t-200.5 95l-131 -147l-156 135l132 150 q-90 104 -140.5 234t-50.5 278zM373 750q0 -82 24.5 -158t69.5 -139l647 733q-115 74 -250 74q-102 0 -191 -42t-155.5 -112t-105.5 -163t-39 -193zM616 309q55 -35 117.5 -53t130.5 -18q102 0 191.5 42t156 112.5t105.5 162.5t39 195q0 80 -24.5 154.5t-67.5 137.5z" />
<glyph unicode="&#xd9;" horiz-adv-x="1613" d="M164 604v893h287v-893q0 -113 36.5 -186.5t91 -116.5t117 -59.5t111.5 -16.5t111.5 16.5t117 59.5t91 117t36.5 186v893h287v-893q0 -143 -45 -260t-129 -199t-203 -127t-266 -45q-145 0 -264 45t-203 127t-130 199t-46 260zM487 1778l236 102l240 -309h-201z" />
<glyph unicode="&#xda;" horiz-adv-x="1613" d="M164 604v893h287v-893q0 -113 36.5 -186.5t91 -116.5t117 -59.5t111.5 -16.5t111.5 16.5t117 59.5t91 117t36.5 186v893h287v-893q0 -143 -45 -260t-129 -199t-203 -127t-266 -45q-145 0 -264 45t-203 127t-130 199t-46 260zM649 1571l240 309l237 -102l-274 -207h-203z " />
<glyph unicode="&#xdb;" horiz-adv-x="1613" d="M164 604v893h287v-893q0 -113 36.5 -186.5t91 -116.5t117 -59.5t111.5 -16.5t111.5 16.5t117 59.5t91 117t36.5 186v893h287v-893q0 -143 -45 -260t-129 -199t-203 -127t-266 -45q-145 0 -264 45t-203 127t-130 199t-46 260zM436 1565l250 315h240l252 -313h-230 l-145 143l-137 -145h-230z" />
<glyph unicode="&#xdc;" horiz-adv-x="1613" d="M164 604v893h287v-893q0 -113 36.5 -186.5t91 -116.5t117 -59.5t111.5 -16.5t111.5 16.5t117 59.5t91 117t36.5 186v893h287v-893q0 -143 -45 -260t-129 -199t-203 -127t-266 -45q-145 0 -264 45t-203 127t-130 199t-46 260zM459 1726q0 59 41 99.5t100 40.5t98 -40 t39 -100q0 -59 -39 -98t-98 -39t-100 39t-41 98zM877 1726q0 59 39.5 99.5t99.5 40.5q59 0 99 -40t40 -100q0 -59 -40 -98t-99 -39t-99 39t-40 98z" />
<glyph unicode="&#xdd;" horiz-adv-x="1452" d="M16 1497h334q92 -154 188.5 -317.5t188.5 -317.5q45 72 94 154t98.5 165t97.5 163.5t91 152.5h334q-57 -94 -132 -215t-153 -247t-153.5 -247.5t-133.5 -220.5v-567h-286v567q-133 233 -282.5 465t-285.5 465zM528 1571l240 309l238 -102l-275 -207h-203z" />
<glyph unicode="&#xde;" horiz-adv-x="1456" d="M164 0v1499h287v-217h380q111 0 207.5 -42t169 -114.5t114.5 -169t42 -206.5q0 -111 -42 -207.5t-114.5 -169t-169 -114.5t-207.5 -42h-380v-217h-287zM451 473h380q51 0 95.5 24.5t78 63.5t53 88t19.5 101q0 51 -19.5 100t-53 88t-77.5 63.5t-96 24.5h-380v-553z" />
<glyph unicode="&#xdf;" horiz-adv-x="2760" d="M104 197l156 229q113 -78 232.5 -134t250.5 -56q70 0 123.5 17t90 45t55 63.5t18.5 70.5q0 45 -27.5 77t-73.5 52.5t-108.5 34.5t-130.5 27q-45 8 -104.5 19t-123 30.5t-125 51.5t-110.5 80t-78.5 114.5t-29.5 156.5q0 131 53 218t136 137.5t184.5 71t195.5 20.5 t168 -12.5t137.5 -36t124 -59.5t129.5 -85l-160 -225q-106 74 -204.5 112.5t-206.5 38.5q-37 0 -84 -9t-89 -29.5t-69.5 -52t-27.5 -77.5q0 -45 32.5 -75.5t83.5 -51t112.5 -35t119.5 -28.5q43 -10 101 -20.5t120.5 -29t124 -49t109.5 -78.5t78 -119t30 -171 q0 -117 -41 -203t-117 -142t-180.5 -85t-230.5 -29q-117 0 -206 17.5t-163 47.5t-139.5 71t-135.5 90zM1470 197l156 229q113 -78 232.5 -134t250.5 -56q70 0 123.5 17t90 45t55 63.5t18.5 70.5q0 45 -27.5 77t-73.5 52.5t-108.5 34.5t-130.5 27q-45 8 -104.5 19t-123 30.5 t-125 51.5t-110.5 80t-78.5 114.5t-29.5 156.5q0 131 53 218t136 137.5t184.5 71t195.5 20.5t168 -12.5t137.5 -36t124 -59.5t129.5 -85l-159 -225q-106 74 -205 112.5t-207 38.5q-37 0 -84 -9t-89 -29.5t-69.5 -52t-27.5 -77.5q0 -45 32.5 -75.5t83.5 -51t112.5 -35 t119.5 -28.5q43 -10 101 -20.5t120.5 -29t124 -49t109.5 -78.5t78 -119t30 -171q0 -117 -41 -203t-117 -142t-180 -85t-231 -29q-117 0 -206 17.5t-163 47.5t-139.5 71t-135.5 90z" />
<glyph unicode="&#xe0;" d="M12 0h312l114 236h707l117 -236h311l-766 1497h-29zM412 1778l235 102l240 -309h-201zM578 485l215 453l213 -453h-428z" />
<glyph unicode="&#xe1;" d="M12 0l766 1497h29l766 -1497h-311l-117 236h-707l-114 -236h-312zM578 485h428l-213 453zM696 1571l240 309l238 -102l-275 -207h-203z" />
<glyph unicode="&#xe2;" d="M12 0l766 1497h29l766 -1497h-311l-117 236h-707l-114 -236h-312zM422 1565l250 315h239l252 -313h-229l-146 143l-137 -145h-229zM578 485h428l-213 453z" />
<glyph unicode="&#xe3;" d="M12 0h312l114 236h707l117 -236h311l-766 1497h-29zM383 1624q8 33 27.5 76t51.5 81t76 63.5t101 27.5q84 2 132 -30t79 -60q23 -23 39 -32t45 -11q25 -2 43 13t31 32q14 20 26 47l166 -59q-8 -23 -24.5 -56t-45.5 -65q-41 -47 -90 -72t-104 -25h-8q-76 4 -120 34t-75 59 q-23 23 -40 33t-50 10q-23 0 -39 -17.5t-27.5 -39t-18.5 -39.5l-7 -17zM578 485l215 453l213 -453h-428z" />
<glyph unicode="&#xe4;" d="M12 0h312l114 236h707l117 -236h311l-766 1497h-29zM444 1706q0 59 41 99t101 40q59 0 98 -40t39 -99t-39 -98t-98 -39t-100.5 39t-41.5 98zM578 485l215 453l213 -453h-428zM862 1706q0 59 40 99t99 40t99.5 -40t40.5 -99t-40 -98t-100 -39q-59 0 -99 39t-40 98z" />
<glyph unicode="&#xe5;" d="M12 0l733 1432q-76 16 -125 76.5t-49 140.5q0 45 17.5 85t47.5 69.5t69.5 47t87.5 17.5q45 0 85 -17.5t69.5 -47t47 -69.5t17.5 -85q0 -80 -49.5 -140.5t-122.5 -76.5l733 -1432h-311l-117 236h-707l-114 -236h-312zM578 485h428l-213 453zM709 1649q0 -35 24.5 -59.5 t59.5 -24.5t58 24.5t23 59.5t-23 58.5t-58 23.5t-59.5 -24t-24.5 -58z" />
<glyph unicode="&#xe6;" horiz-adv-x="2174" d="M-25 0l990 1501h1077v-258h-817v-371h725v-262h-725v-350h817v-260h-1104v252h-473l-166 -252h-324zM631 506h307v485z" />
<glyph unicode="&#xe7;" horiz-adv-x="1593" d="M82 748q0 160 61.5 301t167 246.5t246.5 167t301 61.5q109 0 210 -29t188 -81t159 -124.5t121 -161.5l-268 -108q-33 49 -77 92t-97.5 76t-112.5 51t-123 18q-102 0 -191 -41.5t-155 -111.5t-104.5 -163t-38.5 -193q0 -102 38.5 -194.5t104.5 -162t155 -111.5t191 -42 q63 0 122.5 18t113 51t97.5 77t77 93l268 -108q-47 -84 -112.5 -154t-146.5 -121t-175 -82.5t-195 -38.5l-28 -63q6 2 29.5 3t52.5 -9q113 -39 104 -164q-4 -63 -31.5 -97t-62.5 -50.5t-68 -19.5t-47 -3q-43 0 -73.5 9t-53.5 20q-25 12 -43 28l51 101q8 -8 25 -17 q14 -6 36.5 -12t57.5 -4q25 0 44.5 14.5t19.5 42.5q0 29 -24 37t-44 8q-23 -2 -42 -6t-34 -8q-16 -6 -31 -12l-28 47l61 157q-147 14 -274 81t-220.5 170.5t-147.5 236.5t-54 285z" />
<glyph unicode="&#xe8;" horiz-adv-x="1398" d="M164 0h1102v258h-817v352h725v260h-725v375h817v254h-1102v-1499zM420 1778l235 102l240 -309h-201z" />
<glyph unicode="&#xe9;" horiz-adv-x="1398" d="M164 0v1499h1102v-254h-817v-375h725v-260h-725v-352h817v-258h-1102zM522 1571l240 309l237 -102l-274 -207h-203z" />
<glyph unicode="&#xea;" horiz-adv-x="1398" d="M164 0v1499h1102v-254h-817v-375h725v-260h-725v-352h817v-258h-1102zM350 1565l250 315h240l252 -313h-230l-145 143l-137 -145h-230z" />
<glyph unicode="&#xeb;" horiz-adv-x="1398" d="M164 0h1102v258h-817v352h725v260h-725v375h817v254h-1102v-1499zM371 1726q0 59 41 99.5t100 40.5t98 -40t39 -100q0 -59 -39 -98t-98 -39t-100 39t-41 98zM788 1726q0 59 40 99.5t100 40.5q59 0 99 -40t40 -100q0 -59 -40 -98t-99 -39t-99.5 39t-40.5 98z" />
<glyph unicode="&#xec;" horiz-adv-x="696" d="M12 1778l236 102l239 -309h-200zM205 0v1497h287v-1497h-287z" />
<glyph unicode="&#xed;" horiz-adv-x="696" d="M205 0v1497h287v-1497h-287zM205 1571l239 309l238 -102l-274 -207h-203z" />
<glyph unicode="&#xee;" horiz-adv-x="696" d="M-23 1565l250 315h240l252 -313h-230l-145 143l-137 -145h-230zM205 0v1497h287v-1497h-287z" />
<glyph unicode="&#xef;" horiz-adv-x="696" d="M0 1726q0 59 41 99.5t100 40.5t98.5 -40t39.5 -100q0 -59 -39 -98t-99 -39q-59 0 -100 39t-41 98zM205 0v1497h287v-1497h-287zM418 1726q0 59 40 99.5t99 40.5t99 -40t40 -100q0 -59 -40 -98t-99 -39t-99 39t-40 98z" />
<glyph unicode="&#xf0;" horiz-adv-x="1671" d="M59 616v252h166v631h592q322 0 529 -188q111 -100 167 -242.5t56 -318.5q0 -178 -56.5 -320.5t-166.5 -243.5q-100 -92 -234.5 -139t-294.5 -47h-592v616h-166zM512 254h305q80 0 162 18.5t148.5 72.5t109.5 150.5t43 252.5t-43 253t-110.5 150t-149.5 71.5t-160 18.5 h-305v-373h258v-252h-258v-362z" />
<glyph unicode="&#xf1;" horiz-adv-x="1630" d="M164 0h285v891l987 -891h30v1497h-286v-905l-985 905h-31v-1497zM385 1624q8 33 27.5 76t51.5 81t76 63.5t101 27.5q84 2 132 -30t79 -60q23 -23 39 -32t45 -11q25 -2 43 13t31 32q14 20 26 47l166 -59q-8 -23 -24.5 -56t-44.5 -65q-41 -47 -90.5 -72t-104.5 -25h-8 q-76 4 -120 34t-75 59q-23 23 -40 33t-50 10q-23 0 -39 -17.5t-27.5 -39t-18.5 -39.5l-7 -17z" />
<glyph unicode="&#xf2;" horiz-adv-x="1732" d="M88 750q0 160 61.5 302t167 247.5t247 167t300.5 61.5q162 0 303.5 -61.5t247 -167t166.5 -248t61 -301.5q0 -162 -61 -303.5t-166.5 -247t-247 -167t-303.5 -61.5q-160 0 -301 61.5t-246.5 167t-167 247t-61.5 303.5zM373 750q0 -102 39 -194.5t105.5 -163t155.5 -112.5 t191 -42t191.5 42t156 112.5t105.5 162.5t39 195q0 100 -39 193t-105.5 163t-156 112t-191.5 42t-191 -42t-155.5 -112t-105.5 -163t-39 -193zM547 1778l235 102l240 -309h-201z" />
<glyph unicode="&#xf3;" horiz-adv-x="1732" d="M88 750q0 160 61.5 302t167 247.5t247 167t300.5 61.5q162 0 303.5 -61.5t247 -167t166.5 -248t61 -301.5q0 -162 -61 -303.5t-166.5 -247t-247 -167t-303.5 -61.5q-160 0 -301 61.5t-246.5 167t-167 247t-61.5 303.5zM373 750q0 -102 39 -194.5t105.5 -163t155.5 -112.5 t191 -42t191.5 42t156 112.5t105.5 162.5t39 195q0 100 -39 193t-105.5 163t-156 112t-191.5 42t-191 -42t-155.5 -112t-105.5 -163t-39 -193zM688 1571l240 309l237 -102l-274 -207h-203z" />
<glyph unicode="&#xf4;" horiz-adv-x="1732" d="M88 750q0 160 61.5 302t167 247.5t247 167t300.5 61.5q162 0 303.5 -61.5t247 -167t166.5 -248t61 -301.5q0 -162 -61 -303.5t-166.5 -247t-247 -167t-303.5 -61.5q-160 0 -301 61.5t-246.5 167t-167 247t-61.5 303.5zM373 750q0 -102 39 -194.5t105.5 -163t155.5 -112.5 t191 -42t191.5 42t156 112.5t105.5 162.5t39 195q0 100 -39 193t-105.5 163t-156 112t-191.5 42t-191 -42t-155.5 -112t-105.5 -163t-39 -193zM498 1565l250 315h239l252 -313h-229l-146 143l-137 -145h-229z" />
<glyph unicode="&#xf5;" horiz-adv-x="1732" d="M88 750q0 160 61.5 302t167 247.5t247 167t300.5 61.5q162 0 303.5 -61.5t247 -167t166.5 -248t61 -301.5q0 -162 -61 -303.5t-166.5 -247t-247 -167t-303.5 -61.5q-160 0 -301 61.5t-246.5 167t-167 247t-61.5 303.5zM373 750q0 -102 39 -194.5t105.5 -163t155.5 -112.5 t191 -42t191.5 42t156 112.5t105.5 162.5t39 195q0 100 -39 193t-105.5 163t-156 112t-191.5 42t-191 -42t-155.5 -112t-105.5 -163t-39 -193zM457 1624q8 33 27.5 76t51 81t75.5 63.5t102 27.5q84 2 132 -30t79 -60q23 -23 39 -32t45 -11q25 -2 43 13t30 32q14 20 27 47 l166 -59q-8 -23 -24.5 -56t-45.5 -65q-41 -47 -90 -72t-104 -25h-9q-76 4 -119.5 34t-74.5 59q-23 23 -40 33t-50 10q-23 0 -39 -17.5t-27.5 -39t-18.5 -39.5l-7 -17z" />
<glyph unicode="&#xf6;" horiz-adv-x="1732" d="M88 750q0 160 61.5 302t167 247.5t247 167t300.5 61.5q162 0 303.5 -61.5t247 -167t166.5 -248t61 -301.5q0 -162 -61 -303.5t-166.5 -247t-247 -167t-303.5 -61.5q-160 0 -301 61.5t-246.5 167t-167 247t-61.5 303.5zM373 750q0 -102 39 -194.5t105.5 -163t155.5 -112.5 t191 -42t191.5 42t156 112.5t105.5 162.5t39 195q0 100 -39 193t-105.5 163t-156 112t-191.5 42t-191 -42t-155.5 -112t-105.5 -163t-39 -193zM514 1726q0 59 41 99.5t100 40.5t98.5 -40t39.5 -100q0 -59 -39 -98t-99 -39q-59 0 -100 39t-41 98zM932 1726q0 59 40 99.5 t99 40.5t99 -40t40 -100q0 -59 -40 -98t-99 -39t-99 39t-40 98z" />
<glyph unicode="&#xf7;" horiz-adv-x="1253" d="M98 635v252h1053v-252h-1053zM481 289q0 59 42 100t102 41q59 0 101 -41t42 -100t-42 -101.5t-101 -42.5t-101.5 42t-42.5 102zM481 1237q0 59 42 101t102 42q59 0 101 -42t42 -101t-42 -101t-101 -42t-101.5 42t-42.5 101z" />
<glyph unicode="&#xf8;" horiz-adv-x="1732" d="M88 750q0 160 61.5 302t167 247.5t247 167t300.5 61.5q121 0 230.5 -35t203.5 -98l125 143l156 -137l-127 -144q90 -104 140 -233t50 -274q0 -162 -61 -303.5t-166.5 -247t-247 -167t-303.5 -61.5q-121 0 -229.5 34t-200.5 95l-131 -147l-156 135l132 150 q-90 104 -140.5 234t-50.5 278zM373 750q0 -82 24.5 -158t69.5 -139l647 733q-115 74 -250 74q-102 0 -191 -42t-155.5 -112t-105.5 -163t-39 -193zM616 309q55 -35 117.5 -53t130.5 -18q102 0 191.5 42t156 112.5t105.5 162.5t39 195q0 80 -24.5 154.5t-67.5 137.5z" />
<glyph unicode="&#xf9;" horiz-adv-x="1613" d="M164 604v893h287v-893q0 -113 36.5 -186.5t91 -116.5t117 -59.5t111.5 -16.5t111.5 16.5t117 59.5t91 117t36.5 186v893h287v-893q0 -143 -45 -260t-129 -199t-203 -127t-266 -45q-145 0 -264 45t-203 127t-130 199t-46 260zM487 1778l236 102l240 -309h-201z" />
<glyph unicode="&#xfa;" horiz-adv-x="1613" d="M164 604v893h287v-893q0 -113 36.5 -186.5t91 -116.5t117 -59.5t111.5 -16.5t111.5 16.5t117 59.5t91 117t36.5 186v893h287v-893q0 -143 -45 -260t-129 -199t-203 -127t-266 -45q-145 0 -264 45t-203 127t-130 199t-46 260zM649 1571l240 309l237 -102l-274 -207h-203z " />
<glyph unicode="&#xfb;" horiz-adv-x="1613" d="M164 604v893h287v-893q0 -113 36.5 -186.5t91 -116.5t117 -59.5t111.5 -16.5t111.5 16.5t117 59.5t91 117t36.5 186v893h287v-893q0 -143 -45 -260t-129 -199t-203 -127t-266 -45q-145 0 -264 45t-203 127t-130 199t-46 260zM436 1565l250 315h240l252 -313h-230 l-145 143l-137 -145h-230z" />
<glyph unicode="&#xfc;" horiz-adv-x="1613" d="M164 604v893h287v-893q0 -113 36.5 -186.5t91 -116.5t117 -59.5t111.5 -16.5t111.5 16.5t117 59.5t91 117t36.5 186v893h287v-893q0 -143 -45 -260t-129 -199t-203 -127t-266 -45q-145 0 -264 45t-203 127t-130 199t-46 260zM459 1726q0 59 41 99.5t100 40.5t98 -40 t39 -100q0 -59 -39 -98t-98 -39t-100 39t-41 98zM877 1726q0 59 39.5 99.5t99.5 40.5q59 0 99 -40t40 -100q0 -59 -40 -98t-99 -39t-99 39t-40 98z" />
<glyph unicode="&#xfd;" horiz-adv-x="1452" d="M16 1497h334q92 -154 188.5 -317.5t188.5 -317.5q45 72 94 154t98.5 165t97.5 163.5t91 152.5h334q-57 -94 -132 -215t-153 -247t-153.5 -247.5t-133.5 -220.5v-567h-286v567q-133 233 -282.5 465t-285.5 465zM528 1571l240 309l238 -102l-275 -207h-203z" />
<glyph unicode="&#xfe;" horiz-adv-x="1456" d="M164 0v1499h287v-217h380q111 0 207.5 -42t169 -114.5t114.5 -169t42 -206.5q0 -111 -42 -207.5t-114.5 -169t-169 -114.5t-207.5 -42h-380v-217h-287zM451 473h380q51 0 95.5 24.5t78 63.5t53 88t19.5 101q0 51 -19.5 100t-53 88t-77.5 63.5t-96 24.5h-380v-553z" />
<glyph unicode="&#xff;" horiz-adv-x="1452" d="M16 1497q135 -233 285 -464.5t283 -465.5v-567h286v567q57 98 133 220t154 248t152.5 247t132.5 215h-334q-43 -72 -91 -152.5t-97.5 -163.5t-98.5 -165t-94 -154q-92 154 -188.5 317.5t-188.5 317.5h-334zM381 1726q0 59 41 99.5t100 40.5t98 -40t39 -100 q0 -59 -38.5 -98t-98.5 -39q-59 0 -100 39t-41 98zM799 1726q0 59 40 99.5t99 40.5t99 -40t40 -100q0 -59 -40 -98t-99 -39t-99 39t-40 98z" />
<glyph unicode="&#x152;" horiz-adv-x="2375" d="M88 750q0 160 61.5 302t167 247.5t247 167t302.5 61.5q72 0 140.5 -13.5t134.5 -37.5v22h1102v-256h-818v-373h725v-260h-725v-352h818v-258h-1102v23q-66 -25 -134.5 -38.5t-140.5 -13.5q-162 0 -303 61.5t-246.5 167t-167 248t-61.5 302.5zM375 750q0 -123 39 -219.5 t105.5 -164t155.5 -103.5t191 -36q113 0 172.5 34t102.5 81v815q-16 20 -40 41t-56.5 37t-76.5 26.5t-102 10.5q-102 0 -191 -34t-155.5 -100.5t-105.5 -163.5t-39 -224z" />
<glyph unicode="&#x153;" horiz-adv-x="2375" d="M88 750q0 160 61.5 302t167 247.5t247 167t302.5 61.5q72 0 140.5 -13.5t134.5 -37.5v22h1102v-256h-818v-373h725v-260h-725v-352h818v-258h-1102v23q-66 -25 -134.5 -38.5t-140.5 -13.5q-162 0 -303 61.5t-246.5 167t-167 248t-61.5 302.5zM375 750q0 -123 39 -219.5 t105.5 -164t155.5 -103.5t191 -36q113 0 172.5 34t102.5 81v815q-16 20 -40 41t-56.5 37t-76.5 26.5t-102 10.5q-102 0 -191 -34t-155.5 -100.5t-105.5 -163.5t-39 -224z" />
<glyph unicode="&#x178;" horiz-adv-x="1452" d="M16 1497q135 -233 285 -464.5t283 -465.5v-567h286v567q57 98 133 220t154 248t152.5 247t132.5 215h-334q-43 -72 -91 -152.5t-97.5 -163.5t-98.5 -165t-94 -154q-92 154 -188.5 317.5t-188.5 317.5h-334zM381 1726q0 59 41 99.5t100 40.5t98 -40t39 -100 q0 -59 -38.5 -98t-98.5 -39q-59 0 -100 39t-41 98zM799 1726q0 59 40 99.5t99 40.5t99 -40t40 -100q0 -59 -40 -98t-99 -39t-99 39t-40 98z" />
<glyph unicode="&#x2c6;" horiz-adv-x="882" d="M63 1573l250 315h240l252 -313h-230l-145 143l-137 -145h-230z" />
<glyph unicode="&#x2dc;" horiz-adv-x="968" d="M72 1632q8 33 27.5 76t51 81t75.5 63.5t102 27.5q84 2 132 -29.5t79 -60.5q23 -23 39 -32t45 -11q25 -2 43 13.5t30 31.5q14 20 27 47l166 -59q-8 -23 -24.5 -55.5t-45.5 -65.5q-41 -47 -90 -71.5t-104 -24.5h-9q-76 4 -119.5 33.5t-74.5 58.5q-23 23 -40 33t-50 10 q-23 0 -39.5 -17.5t-27.5 -39t-18 -39.5l-7 -17z" />
<glyph unicode="&#x2000;" horiz-adv-x="944" />
<glyph unicode="&#x2001;" horiz-adv-x="1888" />
<glyph unicode="&#x2002;" horiz-adv-x="944" />
<glyph unicode="&#x2003;" horiz-adv-x="1888" />
<glyph unicode="&#x2004;" horiz-adv-x="629" />
<glyph unicode="&#x2005;" horiz-adv-x="472" />
<glyph unicode="&#x2006;" horiz-adv-x="314" />
<glyph unicode="&#x2007;" horiz-adv-x="314" />
<glyph unicode="&#x2008;" horiz-adv-x="236" />
<glyph unicode="&#x2009;" horiz-adv-x="377" />
<glyph unicode="&#x200a;" horiz-adv-x="104" />
<glyph unicode="&#x2010;" horiz-adv-x="837" d="M78 645v252h670v-252h-670z" />
<glyph unicode="&#x2011;" horiz-adv-x="837" d="M78 645v252h670v-252h-670z" />
<glyph unicode="&#x2012;" horiz-adv-x="837" d="M78 645v252h670v-252h-670z" />
<glyph unicode="&#x2013;" horiz-adv-x="1011" d="M78 645v252h848v-252h-848z" />
<glyph unicode="&#x2014;" horiz-adv-x="1507" d="M78 645v252h1339v-252h-1339z" />
<glyph unicode="&#x2018;" horiz-adv-x="503" d="M92 1246q10 65 43 122t87 99t126 59l35 -74q-63 -23 -98 -62.5t-43 -91.5q63 4 108 -38.5t47 -104.5q4 -63 -38 -108.5t-105 -49.5q-57 -2 -99.5 32t-56.5 93q-16 59 -6 124z" />
<glyph unicode="&#x2019;" horiz-adv-x="393" d="M43 1368q-4 63 38 108.5t105 49.5q57 2 99.5 -32t56.5 -93t5 -124t-42 -122t-87 -99t-126 -59l-35 74q66 23 99.5 63t42.5 91q-63 -4 -108.5 39t-47.5 104z" />
<glyph unicode="&#x201a;" horiz-adv-x="430" d="M53 127q-4 63 39 108.5t105 49.5q57 2 99 -32t56 -93t5 -124t-41.5 -121t-86 -99t-127.5 -60l-34 76q66 20 99.5 60t41.5 92q-61 -2 -106.5 40t-49.5 103z" />
<glyph unicode="&#x201c;" horiz-adv-x="919" d="M92 1246q10 65 43 122t87 99t126 59l35 -74q-63 -23 -98 -62.5t-43 -91.5q63 4 108 -38.5t47 -104.5q4 -63 -38 -108.5t-105 -49.5q-57 -2 -99.5 32t-56.5 93q-16 59 -6 124zM502 1246q10 65 43 122t87 99t126 59l35 -74q-63 -23 -98.5 -62.5t-41.5 -91.5 q61 2 106.5 -39.5t47.5 -103.5q4 -63 -38 -108.5t-105 -49.5q-57 -2 -99.5 32t-56.5 93q-16 59 -6 124z" />
<glyph unicode="&#x201d;" horiz-adv-x="802" d="M43 1368q-4 63 38 108.5t105 49.5q57 2 99.5 -32t56.5 -93t5 -124t-42 -122t-87 -99t-126 -59l-35 74q66 23 99.5 63t42.5 91q-63 -4 -108.5 39t-47.5 104zM453 1368q-4 63 37.5 108.5t105.5 49.5q57 2 99.5 -32t56.5 -93t5 -124t-42 -122t-87.5 -99t-125.5 -59l-35 74 q66 23 99.5 63t41.5 91q-63 -4 -108 39t-47 104z" />
<glyph unicode="&#x201e;" horiz-adv-x="802" d="M43 127q-4 63 38 108.5t105 49.5q57 2 99.5 -32t56.5 -93t5 -124t-42 -122t-87 -99t-126 -59l-35 74q66 23 99.5 62.5t42.5 91.5q-63 -4 -108.5 39t-47.5 104zM453 127q-4 63 37.5 108.5t105.5 49.5q57 2 99.5 -32t56.5 -93t5 -124t-42 -122t-87.5 -99t-125.5 -59l-35 74 q66 23 99.5 62.5t41.5 91.5q-63 -4 -108 39t-47 104z" />
<glyph unicode="&#x2022;" horiz-adv-x="741" d="M139 829q0 47 18.5 89.5t50.5 74t74 50t89 18.5t89 -18.5t73.5 -50t50 -73.5t18.5 -90q0 -47 -18.5 -89t-50 -73.5t-73.5 -50t-89 -18.5t-89 18.5t-74 50t-50.5 73.5t-18.5 89z" />
<glyph unicode="&#x2026;" horiz-adv-x="1433" d="M102 135q0 61 44 105.5t106 44.5q63 0 107 -44.5t44 -105.5q0 -63 -44 -107t-107 -44q-61 0 -105.5 44t-44.5 107zM567 135q0 61 44 105.5t106 44.5q63 0 107 -44.5t44 -105.5q0 -63 -44 -107t-107 -44q-61 0 -105.5 44t-44.5 107zM1032 135q0 61 44 105.5t106 44.5 q63 0 107 -44.5t44 -105.5q0 -63 -44 -107t-107 -44q-61 0 -105.5 44t-44.5 107z" />
<glyph unicode="&#x202f;" horiz-adv-x="377" />
<glyph unicode="&#x2039;" horiz-adv-x="829" d="M111 752l305 479h293l-318 -479l320 -473h-297z" />
<glyph unicode="&#x203a;" horiz-adv-x="829" d="M111 279l319 473l-317 479h293l305 -479l-303 -473h-297z" />
<glyph unicode="&#x205f;" horiz-adv-x="472" />
<glyph unicode="&#x20ac;" horiz-adv-x="1404" d="M45 498v207h145v6q0 27 1.5 51t3.5 47h-150v207h184q45 166 150 289q88 106 207 162.5t254 56.5q129 0 224 -45t158.5 -100.5t95.5 -103.5t34 -52l-252 -138q-4 8 -22.5 37t-50.5 60.5t-79 56.5t-108 25q-104 0 -183 -69t-127 -179h414v-207h-463q-4 -23 -4 -47.5v-50.5 v-6h467v-207h-440q14 -51 40.5 -99.5t66.5 -85.5t96.5 -59.5t132.5 -22.5q74 0 125 29t81.5 63.5t45.5 64.5l14 30l262 -115q-2 -2 -14.5 -28.5t-40 -63.5t-68.5 -79t-99.5 -78t-135 -59.5t-170.5 -23.5q-100 0 -200.5 29t-186.5 91.5t-150.5 162.5t-93.5 244h-164z M1100 1085l2 -2z" />
<glyph unicode="&#x2122;" horiz-adv-x="1738" d="M104 1323v178h635v-178h-225v-578h-184v578h-226zM834 745v756h45l331 -405l332 405h45v-756h-184v297l-193 -233l-192 233v-297h-184z" />
<glyph unicode="&#x25fc;" horiz-adv-x="1495" d="M0 0v1495h1495v-1495h-1495z" />
</font>
</defs>
</svg>
